<?xml version="1.0" standalone="no"?>
<!DOCTYPE svg PUBLIC "-//W3C//DTD SVG 20010904//EN"
 "http://www.w3.org/TR/2001/REC-SVG-20010904/DTD/svg10.dtd">
<svg version="1.0" xmlns="http://www.w3.org/2000/svg"
 width="300.000000pt" height="233.000000pt" viewBox="0 0 300.000000 233.000000"
 preserveAspectRatio="xMidYMid meet">
<metadata>
Created by potrace 1.10, written by Peter Selinger 2001-2011
</metadata>
<g transform="translate(0.000000,233.000000) scale(0.100000,-0.100000)"
fill="#000000" stroke="none">
<path d="M1352 1768 c-38 -68 -117 -204 -174 -303 -389 -673 -540 -936 -537
-938 2 -1 63 -1 134 1 l130 3 262 450 261 450 44 -81 43 -80 134 0 133 0 -14
23 c-50 77 -328 575 -328 588 0 28 -25 -4 -88 -113z m130 -50 c25 -46 82 -148
127 -227 44 -79 82 -151 83 -160 2 -13 -8 -17 -57 -19 -87 -5 -99 1 -134 63
-29 50 -55 75 -80 75 -23 0 -62 -62 -296 -463 l-241 -412 -82 -3 c-57 -2 -82
1 -82 9 0 11 96 184 251 449 47 80 141 242 209 360 68 118 143 248 167 287 23
40 43 76 43 80 0 9 31 43 40 43 3 0 27 -37 52 -82z"/>
<path d="M2000 1583 l0 -120 38 -15 c49 -19 92 -75 99 -128 8 -56 -20 -123
-65 -158 l-35 -27 -251 -6 c-267 -6 -289 -9 -373 -62 -55 -35 -121 -112 -151
-177 -34 -72 -42 -199 -18 -279 42 -141 180 -265 310 -278 l51 -5 0 120 0 121
-25 5 c-56 11 -120 92 -120 151 0 57 54 134 110 158 14 6 134 13 275 16 248 6
250 6 307 34 147 72 244 261 218 423 -27 167 -171 316 -327 340 l-43 7 0 -120z
m119 47 c217 -99 281 -363 136 -562 -37 -51 -95 -93 -160 -116 -29 -10 -106
-15 -273 -18 -231 -4 -234 -4 -283 -31 -51 -27 -108 -98 -110 -137 -5 -94 15
-141 82 -197 l49 -41 0 -74 c0 -73 0 -74 -26 -74 -67 0 -188 101 -234 195 -22
43 -25 64 -25 155 0 95 3 110 27 155 53 100 146 173 248 194 31 7 139 12 249
11 106 0 211 4 232 10 75 20 133 94 145 184 9 60 -23 124 -87 178 l-49 41 0
67 c0 90 5 93 79 60z"/>
<path d="M1808 748 c5 -7 37 -62 70 -121 l60 -108 131 -2 c72 -1 130 1 129 5
-2 3 -32 58 -68 122 l-65 116 -134 0 c-105 0 -131 -3 -123 -12z m233 -41 c17
-13 79 -119 79 -134 0 -14 -128 -25 -150 -13 -22 12 -88 132 -82 148 5 16 132
15 153 -1z"/>
</g>
</svg>
